<?xml version="1.0" encoding="UTF-8"?>
<svg width="512px" height="264px" viewBox="0 0 512 264" version="1.1" xmlns="http://www.w3.org/2000/svg" xmlns:xlink="http://www.w3.org/1999/xlink" style="background: #FFFFFF;">
    <!-- Generator: Sketch 43.1 (39012) - http://www.bohemiancoding.com/sketch -->
    <title>book/03-git-branching/images/commits-and-parents</title>
    <desc>Created with Sketch.</desc>
    <defs></defs>
    <g id="03---Commit-(step-1)" stroke="none" stroke-width="1" fill="none" fill-rule="evenodd">
        <g id="symref-3" transform="translate(349.000000, 116.000000)">
            <rect id="Rectangle-2" fill="#00909A" x="0" y="0" width="144" height="50"></rect>
            <text id="master" font-family="Menlo-Regular, Menlo" font-size="12" font-weight="normal" fill="#FFFFFF">
                <tspan x="35.8769531" y="30">Snapshot C</tspan>
            </text>
        </g>
        <path d="M77.5,42.437203 L77.5,238.321739" id="Line-3" stroke="#8F8981" fill="#8F8981" stroke-linecap="square"></path>
        <path d="M247.5,42.437203 L247.5,238.321739" id="Line-7" stroke="#8F8981" fill="#8F8981" stroke-linecap="square"></path>
        <g id="goldref" transform="translate(24.000000, 25.000000)">
            <rect id="Rectangle-3" fill="#CD9F00" fill-rule="evenodd" x="0" y="0" width="108" height="33"></rect>
            <text id="master-2" stroke-width="1" font-family="Menlo-Regular, Menlo" font-size="12" font-weight="normal" fill="#FFFFFF">
                <tspan x="24.787609" y="21">Modified</tspan>
            </text>
        </g>
        <g id="ref" transform="translate(193.000000, 25.000000)">
            <rect id="Rectangle-2" fill="#F44D27" fill-rule="evenodd" x="0" y="0" width="107" height="33"></rect>
            <text id="master" stroke-width="1" font-family="Menlo-Regular, Menlo" font-size="11.1428571" font-weight="normal" fill="#FFFFFF">
                <tspan x="33.0632559" y="20">Staged</tspan>
            </text>
        </g>
        <path d="M295.069215,69 C296.178861,69 297.533208,69.7598773 298.101139,70.7087699 L339.149106,139.29123 C339.713945,140.234958 339.717037,141.759877 339.149106,142.70877 L298.101139,211.29123 C297.536299,212.234958 296.178642,213 295.069215,213 L195.009191,213 C193.899545,213 193,212.099199 193,210.99186 L193,71.0081404 C193,69.8990751 193.899764,69 195.009191,69 L295.069215,69 Z" id="Polygon" stroke="#979797" fill="#FCFFCE"></path>
        <g id="jessica" transform="translate(203.000000, 84.000000)">
            <rect id="Rectangle-1" fill="#B8E986" fill-rule="evenodd" x="0" y="0" width="89" height="33" rx="16.5"></rect>
            <text id="C3'" stroke-width="1" font-family="Menlo-Regular, Menlo" font-size="12" font-weight="normal" fill="#000000">
                <tspan x="9.37695313" y="21">File_1.txt</tspan>
            </text>
        </g>
        <g id="jessica" transform="translate(203.000000, 124.000000)">
            <rect id="Rectangle-1" fill="#B8E986" fill-rule="evenodd" x="0" y="0" width="89" height="33" rx="16.5"></rect>
            <text id="C3'" stroke-width="1" font-family="Menlo-Regular, Menlo" font-size="12" font-weight="normal" fill="#000000">
                <tspan x="9.37695313" y="21">File_2.txt</tspan>
            </text>
        </g>
        <g id="jessica" transform="translate(203.000000, 164.000000)">
            <rect id="Rectangle-1" fill="#B8E986" fill-rule="evenodd" x="0" y="0" width="89" height="33" rx="16.5"></rect>
            <text id="C3'" stroke-width="1" font-family="Menlo-Regular, Menlo" font-size="12" font-weight="normal" fill="#000000">
                <tspan x="9.37695313" y="21">File_3.txt</tspan>
            </text>
        </g>
        <g id="john" transform="translate(33.000000, 124.000000)">
            <rect id="Rectangle-1" fill="#FCC160" fill-rule="evenodd" x="0" y="0" width="89" height="33" rx="16.5"></rect>
            <text id="C3'" stroke-width="1" font-family="Menlo-Regular, Menlo" font-size="12" font-weight="normal" fill="#000000">
                <tspan x="9.37695313" y="21">File_2.txt</tspan>
            </text>
        </g>
        <g id="john" transform="translate(33.000000, 164.000000)">
            <rect id="Rectangle-1" fill="#FCC160" fill-rule="evenodd" x="0" y="0" width="89" height="33" rx="16.5"></rect>
            <text id="C3'" stroke-width="1" font-family="Menlo-Regular, Menlo" font-size="12" font-weight="normal" fill="#000000">
                <tspan x="9.37695313" y="21">File_3.txt</tspan>
            </text>
        </g>
    </g>
</svg>