<?xml version="1.0" encoding="UTF-8"?>
<svg width="663px" height="487px" viewBox="0 0 663 487" version="1.1" xmlns="http://www.w3.org/2000/svg" xmlns:xlink="http://www.w3.org/1999/xlink" style="background: #FFFFFF;">
    <!-- Generator: Sketch 43.1 (39012) - http://www.bohemiancoding.com/sketch -->
    <title>book/03-git-branching/images/remote-branches-3</title>
    <desc>Created with Sketch.</desc>
    <defs></defs>
    <g id="03---Remote-Branches-3" stroke="none" stroke-width="1" fill="none" fill-rule="evenodd">
        <g id="brown" transform="translate(46.000000, 109.000000)">
            <rect id="Rectangle-1" fill="#EFEFE7" fill-rule="evenodd" x="0" y="0" width="89" height="33" rx="16.5"></rect>
            <text id="C6" stroke-width="1" font-family="Menlo-Regular, Menlo" font-size="12" font-weight="normal" fill="#000000">
                <tspan x="27.4384766" y="21">0b743</tspan>
            </text>
        </g>
        <path d="M182.5,125.5 L135.5,125.5" id="Line-7" stroke="#8F8981" fill="#8F8981" stroke-linecap="square"></path>
        <path id="Line-7-decoration-1" d="M135.5,125.5 L146.3,128.5 L146.3,122.5 L135.5,125.5 Z" stroke="#8F8981" fill="#8F8981" stroke-linecap="square"></path>
        <g id="brown" transform="translate(163.000000, 109.000000)">
            <rect id="Rectangle-1" fill="#EFEFE7" fill-rule="evenodd" x="0" y="0" width="89" height="33" rx="16.5"></rect>
            <text id="C6" stroke-width="1" font-family="Menlo-Regular, Menlo" font-size="12" font-weight="normal" fill="#000000">
                <tspan x="27.4384766" y="21">a6b4c</tspan>
            </text>
        </g>
        <path d="M299.5,125.5 L252.5,125.5" id="Line-8" stroke="#8F8981" fill="#8F8981" stroke-linecap="square"></path>
        <path id="Line-8-decoration-1" d="M252.5,125.5 L263.3,128.5 L263.3,122.5 L252.5,125.5 Z" stroke="#8F8981" fill="#8F8981" stroke-linecap="square"></path>
        <g id="brown" transform="translate(280.000000, 109.000000)">
            <rect id="Rectangle-1" fill="#EFEFE7" fill-rule="evenodd" x="0" y="0" width="89" height="33" rx="16.5"></rect>
            <text id="C6" stroke-width="1" font-family="Menlo-Regular, Menlo" font-size="12" font-weight="normal" fill="#000000">
                <tspan x="27.4384766" y="21">f4265</tspan>
            </text>
        </g>
        <path d="M414.5,125.5 L367.5,125.5" id="Line-9" stroke="#8F8981" fill="#8F8981" stroke-linecap="square"></path>
        <path id="Line-9-decoration-1" d="M367.5,125.5 L378.3,128.5 L378.3,122.5 L367.5,125.5 Z" stroke="#8F8981" fill="#8F8981" stroke-linecap="square"></path>
        <g id="brown" transform="translate(395.000000, 109.000000)">
            <rect id="Rectangle-1" fill="#EFEFE7" fill-rule="evenodd" x="0" y="0" width="89" height="33" rx="16.5"></rect>
            <text id="C6" stroke-width="1" font-family="Menlo-Regular, Menlo" font-size="12" font-weight="normal" fill="#000000">
                <tspan x="27.4384766" y="21">31b8e</tspan>
            </text>
        </g>
        <path d="M530.5,125.5 L483.5,125.5" id="Line-10" stroke="#8F8981" fill="#8F8981" stroke-linecap="square"></path>
        <path id="Line-10-decoration-1" d="M483.5,125.5 L494.3,128.5 L494.3,122.5 L483.5,125.5 Z" stroke="#8F8981" fill="#8F8981" stroke-linecap="square"></path>
        <g id="brown" transform="translate(511.000000, 109.000000)">
            <rect id="Rectangle-1" fill="#EFEFE7" fill-rule="evenodd" x="0" y="0" width="89" height="33" rx="16.5"></rect>
            <text id="C6" stroke-width="1" font-family="Menlo-Regular, Menlo" font-size="12" font-weight="normal" fill="#000000">
                <tspan x="27.4384766" y="21">190a3</tspan>
            </text>
        </g>
        <g id="Line-2-+-ref" transform="translate(513.000000, 56.000000)">
            <path d="M42.5,20.5 L42.5,52.5" id="Line-2" stroke="#8F8981" fill="#8F8981" stroke-linecap="square"></path>
            <path id="Line-2-decoration-1" d="M42.5,52.5 L45.5,41.7 L39.5,41.7 L42.5,52.5 Z" stroke="#8F8981" fill="#8F8981" stroke-linecap="square"></path>
            <g id="ref">
                <rect id="Rectangle-2" fill="#F44D27" fill-rule="evenodd" x="0" y="0" width="107" height="33"></rect>
                <text id="master" stroke-width="1" font-family="Menlo-Regular, Menlo" font-size="11.1428571" font-weight="normal" fill="#FFFFFF">
                    <tspan x="33.0632559" y="20">master</tspan>
                </text>
            </g>
        </g>
        <g id="brown" transform="translate(46.000000, 295.000000)">
            <rect id="Rectangle-1" fill="#EFEFE7" fill-rule="evenodd" x="0" y="0" width="89" height="33" rx="16.5"></rect>
            <text id="C6" stroke-width="1" font-family="Menlo-Regular, Menlo" font-size="12" font-weight="normal" fill="#000000">
                <tspan x="27.4384766" y="21">0b743</tspan>
            </text>
        </g>
        <path d="M182.5,311.5 L135.5,311.5" id="Line-5" stroke="#8F8981" fill="#8F8981" stroke-linecap="square"></path>
        <path id="Line-5-decoration-1" d="M135.5,311.5 L146.3,314.5 L146.3,308.5 L135.5,311.5 Z" stroke="#8F8981" fill="#8F8981" stroke-linecap="square"></path>
        <g id="brown" transform="translate(163.000000, 295.000000)">
            <rect id="Rectangle-1" fill="#EFEFE7" fill-rule="evenodd" x="0" y="0" width="89" height="33" rx="16.5"></rect>
            <text id="C6" stroke-width="1" font-family="Menlo-Regular, Menlo" font-size="12" font-weight="normal" fill="#000000">
                <tspan x="27.4384766" y="21">a6b4c</tspan>
            </text>
        </g>
        <g id="Line-4-+-brown-3" transform="translate(252.000000, 295.000000)">
            <path d="M47.5,16.5 L0.5,16.5" id="Line-4" stroke="#8F8981" fill="#8F8981" stroke-linecap="square"></path>
            <path id="Line-4-decoration-1" d="M0.5,16.5 L11.3,19.5 L11.3,13.5 L0.5,16.5 Z" stroke="#8F8981" fill="#8F8981" stroke-linecap="square"></path>
            <g id="brown" transform="translate(28.000000, 0.000000)">
                <rect id="Rectangle-1" fill="#EFEFE7" fill-rule="evenodd" x="0" y="0" width="89" height="33" rx="16.5"></rect>
                <text id="C6" stroke-width="1" font-family="Menlo-Regular, Menlo" font-size="12" font-weight="normal" fill="#000000">
                    <tspan x="27.4384766" y="21">f4265</tspan>
                </text>
            </g>
        </g>
        <path d="M417.5,311.5 L370.5,311.5" id="Line-11" stroke="#8F8981" fill="#8F8981" stroke-linecap="square"></path>
        <path id="Line-11-decoration-1" d="M370.5,311.5 L381.3,314.5 L381.3,308.5 L370.5,311.5 Z" stroke="#8F8981" fill="#8F8981" stroke-linecap="square"></path>
        <path d="M410.5,367.5 L363.5,325.5" id="Line-14" stroke="#8F8981" fill="#8F8981" stroke-linecap="square"></path>
        <path id="Line-14-decoration-1" d="M363.5,325.5 L369.554093,334.933343 L373.552079,330.459406 L363.5,325.5 Z" stroke="#8F8981" fill="#8F8981" stroke-linecap="square"></path>
        <g id="brown" transform="translate(398.000000, 295.000000)">
            <rect id="Rectangle-1" fill="#EFEFE7" fill-rule="evenodd" x="0" y="0" width="89" height="33" rx="16.5"></rect>
            <text id="C6" stroke-width="1" font-family="Menlo-Regular, Menlo" font-size="12" font-weight="normal" fill="#000000">
                <tspan x="27.4384766" y="21">31b8e</tspan>
            </text>
        </g>
        <path d="M534.5,311.5 L487.5,311.5" id="Line-12" stroke="#8F8981" fill="#8F8981" stroke-linecap="square"></path>
        <path id="Line-12-decoration-1" d="M487.5,311.5 L498.3,314.5 L498.3,308.5 L487.5,311.5 Z" stroke="#8F8981" fill="#8F8981" stroke-linecap="square"></path>
        <g id="brown" transform="translate(515.000000, 295.000000)">
            <rect id="Rectangle-1" fill="#EFEFE7" fill-rule="evenodd" x="0" y="0" width="89" height="33" rx="16.5"></rect>
            <text id="C6" stroke-width="1" font-family="Menlo-Regular, Menlo" font-size="12" font-weight="normal" fill="#000000">
                <tspan x="27.4384766" y="21">190a3</tspan>
            </text>
        </g>
        <g id="brown" transform="translate(398.000000, 352.000000)">
            <rect id="Rectangle-1" fill="#EFEFE7" fill-rule="evenodd" x="0" y="0" width="89" height="33" rx="16.5"></rect>
            <text id="C6" stroke-width="1" font-family="Menlo-Regular, Menlo" font-size="12" font-weight="normal" fill="#000000">
                <tspan x="27.4384766" y="21">a38de</tspan>
            </text>
        </g>
        <path d="M534.5,368.5 L487.5,368.5" id="Line-13" stroke="#8F8981" fill="#8F8981" stroke-linecap="square"></path>
        <path id="Line-13-decoration-1" d="M487.5,368.5 L498.3,371.5 L498.3,365.5 L487.5,368.5 Z" stroke="#8F8981" fill="#8F8981" stroke-linecap="square"></path>
        <g id="brown" transform="translate(515.000000, 352.000000)">
            <rect id="Rectangle-1" fill="#EFEFE7" fill-rule="evenodd" x="0" y="0" width="89" height="33" rx="16.5"></rect>
            <text id="C6" stroke-width="1" font-family="Menlo-Regular, Menlo" font-size="12" font-weight="normal" fill="#000000">
                <tspan x="27.4384766" y="21">893cf</tspan>
            </text>
        </g>
        <g id="Line-3-+-ref-2" transform="translate(516.000000, 385.000000)">
            <path d="M43.5,33.5 L43.5,0.5" id="Line-3" stroke="#8F8981" fill="#8F8981" stroke-linecap="square"></path>
            <path id="Line-3-decoration-1" d="M43.5,0.5 L40.5,11.3 L46.5,11.3 L43.5,0.5 Z" stroke="#8F8981" fill="#8F8981" stroke-linecap="square"></path>
            <g id="ref" transform="translate(0.000000, 20.000000)">
                <rect id="Rectangle-2" fill="#F44D27" fill-rule="evenodd" x="0" y="0" width="107" height="33"></rect>
                <text id="master" stroke-width="1" font-family="Menlo-Regular, Menlo" font-size="11.1428571" font-weight="normal" fill="#FFFFFF">
                    <tspan x="33.0632559" y="20">master</tspan>
                </text>
            </g>
        </g>
        <g id="Line-6-+-ref-3" transform="translate(504.000000, 242.000000)">
            <path d="M54.5,17.5 L54.5,52.5" id="Line-6" stroke="#8F8981" fill="#8F8981" stroke-linecap="square"></path>
            <path id="Line-6-decoration-1" d="M54.5,52.5 L57.5,41.7 L51.5,41.7 L54.5,52.5 Z" stroke="#8F8981" fill="#8F8981" stroke-linecap="square"></path>
            <g id="ref-3">
                <rect id="Rectangle-2" fill="#F44D27" x="0" y="0" width="111" height="33"></rect>
                <text id="master" font-family="Menlo-Regular, Menlo" font-size="12" font-weight="normal" fill="#FFFFFF">
                    <tspan x="8.21736464" y="21">origin/master</tspan>
                </text>
            </g>
        </g>
        <rect id="Rectangle-10" stroke="#8F8981" stroke-linecap="square" x="18.7349823" y="17" width="626.450972" height="144.96875"></rect>
        <rect id="Rectangle-11" stroke="#8F8981" stroke-linecap="square" x="18.7349823" y="208" width="626.450972" height="262"></rect>
        <text id="My-Computer" font-family="Menlo-Regular, Menlo" font-size="12" font-weight="normal" fill="#000000">
            <tspan x="285.264648" y="225">My Computer</tspan>
        </text>
        <text id="git.ourcompany.com" font-family="Menlo-Regular, Menlo" font-size="12" font-weight="normal" fill="#000000">
            <tspan x="260.978516" y="33">git.ourcompany.com</tspan>
        </text>
        <path d="M237,162.432432 L237,194" id="Line" stroke="#8F8981" stroke-width="8" fill="#8F8981"></path>
        <path id="Line-decoration-1" d="M237,194 L240,183.2 L234,183.2 L237,194 Z" stroke="#8F8981" stroke-width="8" fill="#8F8981"></path>
        <text id="git-fetch-origin" font-family="Menlo-Regular, Menlo" font-size="12" font-weight="normal" fill="#413932">
            <tspan x="257" y="190">git fetch origin</tspan>
        </text>
    </g>
</svg>