<?xml version="1.0" encoding="UTF-8"?>
<svg width="690px" height="498px" viewBox="0 0 690 498" version="1.1" xmlns="http://www.w3.org/2000/svg" xmlns:xlink="http://www.w3.org/1999/xlink" style="background: #FFFFFF;">
    <!-- Generator: Sketch 43.1 (39012) - http://www.bohemiancoding.com/sketch -->
    <title>book/03-git-branching/images/remote-branches-5</title>
    <desc>Created with Sketch.</desc>
    <defs></defs>
    <g id="03---Remote-Branches-5-Copy" stroke="none" stroke-width="1" fill="none" fill-rule="evenodd">
        <g id="brown" transform="translate(57.000000, 306.000000)">
            <rect id="Rectangle-1" fill="#EFEFE7" fill-rule="evenodd" x="0" y="0" width="89" height="33" rx="16.5"></rect>
            <text id="C6" stroke-width="1" font-family="Menlo-Regular, Menlo" font-size="12" font-weight="normal" fill="#000000">
                <tspan x="27.4384766" y="21">0b743</tspan>
            </text>
        </g>
        <path d="M193.5,322.5 L146.5,322.5" id="Line-5" stroke="#8F8981" fill="#8F8981" stroke-linecap="square"></path>
        <path id="Line-5-decoration-1" d="M146.5,322.5 L157.3,325.5 L157.3,319.5 L146.5,322.5 Z" stroke="#8F8981" fill="#8F8981" stroke-linecap="square"></path>
        <g id="brown" transform="translate(174.000000, 306.000000)">
            <rect id="Rectangle-1" fill="#EFEFE7" fill-rule="evenodd" x="0" y="0" width="89" height="33" rx="16.5"></rect>
            <text id="C6" stroke-width="1" font-family="Menlo-Regular, Menlo" font-size="12" font-weight="normal" fill="#000000">
                <tspan x="27.4384766" y="21">a6b4c</tspan>
            </text>
        </g>
        <g id="Line-4-+-brown-3" transform="translate(263.000000, 306.000000)">
            <path d="M47.5,16.5 L0.5,16.5" id="Line-4" stroke="#8F8981" fill="#8F8981" stroke-linecap="square"></path>
            <path id="Line-4-decoration-1" d="M0.5,16.5 L11.3,19.5 L11.3,13.5 L0.5,16.5 Z" stroke="#8F8981" fill="#8F8981" stroke-linecap="square"></path>
            <g id="brown" transform="translate(28.000000, 0.000000)">
                <rect id="Rectangle-1" fill="#EFEFE7" fill-rule="evenodd" x="0" y="0" width="89" height="33" rx="16.5"></rect>
                <text id="C6" stroke-width="1" font-family="Menlo-Regular, Menlo" font-size="12" font-weight="normal" fill="#000000">
                    <tspan x="27.4384766" y="21">f4265</tspan>
                </text>
            </g>
        </g>
        <path d="M428.5,322.5 L381.5,322.5" id="Line-11" stroke="#8F8981" fill="#8F8981" stroke-linecap="square"></path>
        <path id="Line-11-decoration-1" d="M381.5,322.5 L392.3,325.5 L392.3,319.5 L381.5,322.5 Z" stroke="#8F8981" fill="#8F8981" stroke-linecap="square"></path>
        <path d="M421.5,378.5 L374.5,336.5" id="Line-14" stroke="#8F8981" fill="#8F8981" stroke-linecap="square"></path>
        <path id="Line-14-decoration-1" d="M374.5,336.5 L380.554093,345.933343 L384.552079,341.459406 L374.5,336.5 Z" stroke="#8F8981" fill="#8F8981" stroke-linecap="square"></path>
        <g id="brown" transform="translate(409.000000, 306.000000)">
            <rect id="Rectangle-1" fill="#EFEFE7" fill-rule="evenodd" x="0" y="0" width="89" height="33" rx="16.5"></rect>
            <text id="C6" stroke-width="1" font-family="Menlo-Regular, Menlo" font-size="12" font-weight="normal" fill="#000000">
                <tspan x="27.4384766" y="21">31b8e</tspan>
            </text>
        </g>
        <path d="M545.5,322.5 L498.5,322.5" id="Line-12" stroke="#8F8981" fill="#8F8981" stroke-linecap="square"></path>
        <path id="Line-12-decoration-1" d="M498.5,322.5 L509.3,325.5 L509.3,319.5 L498.5,322.5 Z" stroke="#8F8981" fill="#8F8981" stroke-linecap="square"></path>
        <g id="brown" transform="translate(526.000000, 306.000000)">
            <rect id="Rectangle-1" fill="#EFEFE7" fill-rule="evenodd" x="0" y="0" width="89" height="33" rx="16.5"></rect>
            <text id="C6" stroke-width="1" font-family="Menlo-Regular, Menlo" font-size="12" font-weight="normal" fill="#000000">
                <tspan x="27.4384766" y="21">190a3</tspan>
            </text>
        </g>
        <g id="brown" transform="translate(409.000000, 363.000000)">
            <rect id="Rectangle-1" fill="#EFEFE7" fill-rule="evenodd" x="0" y="0" width="89" height="33" rx="16.5"></rect>
            <text id="C6" stroke-width="1" font-family="Menlo-Regular, Menlo" font-size="12" font-weight="normal" fill="#000000">
                <tspan x="27.4384766" y="21">a38de</tspan>
            </text>
        </g>
        <path d="M545.5,379.5 L498.5,379.5" id="Line-13" stroke="#8F8981" fill="#8F8981" stroke-linecap="square"></path>
        <path id="Line-13-decoration-1" d="M498.5,379.5 L509.3,382.5 L509.3,376.5 L498.5,379.5 Z" stroke="#8F8981" fill="#8F8981" stroke-linecap="square"></path>
        <g id="brown" transform="translate(526.000000, 363.000000)">
            <rect id="Rectangle-1" fill="#EFEFE7" fill-rule="evenodd" x="0" y="0" width="89" height="33" rx="16.5"></rect>
            <text id="C6" stroke-width="1" font-family="Menlo-Regular, Menlo" font-size="12" font-weight="normal" fill="#000000">
                <tspan x="27.4384766" y="21">893cf</tspan>
            </text>
        </g>
        <g id="Line-3-+-ref-2" transform="translate(527.000000, 396.000000)">
            <path d="M43.5,33.5 L43.5,0.5" id="Line-3" stroke="#8F8981" fill="#8F8981" stroke-linecap="square"></path>
            <path id="Line-3-decoration-1" d="M43.5,0.5 L40.5,11.3 L46.5,11.3 L43.5,0.5 Z" stroke="#8F8981" fill="#8F8981" stroke-linecap="square"></path>
            <g id="ref" transform="translate(0.000000, 20.000000)">
                <rect id="Rectangle-2" fill="#F44D27" fill-rule="evenodd" x="0" y="0" width="107" height="33"></rect>
                <text id="master" stroke-width="1" font-family="Menlo-Regular, Menlo" font-size="11.1428571" font-weight="normal" fill="#FFFFFF">
                    <tspan x="33.0632559" y="20">master</tspan>
                </text>
            </g>
        </g>
        <g id="Line-6-+-ref-3" transform="translate(515.000000, 252.000000)">
            <path d="M54.5,17.5 L54.5,52.5" id="Line-6" stroke="#8F8981" fill="#8F8981" stroke-linecap="square"></path>
            <path id="Line-6-decoration-1" d="M54.5,52.5 L57.5,41.7 L51.5,41.7 L54.5,52.5 Z" stroke="#8F8981" fill="#8F8981" stroke-linecap="square"></path>
            <g id="ref-3">
                <rect id="Rectangle-2" fill="#F44D27" x="0" y="0" width="111" height="33"></rect>
                <text id="master" font-family="Menlo-Regular, Menlo" font-size="12" font-weight="normal" fill="#FFFFFF">
                    <tspan x="8.21736464" y="21">origin/master</tspan>
                </text>
            </g>
        </g>
        <g id="Line-6-+-ref-4" transform="translate(398.000000, 252.000000)">
            <path d="M54.5,17.5 L54.5,52.5" id="Line-6" stroke="#8F8981" fill="#8F8981" stroke-linecap="square"></path>
            <path id="Line-6-decoration-1" d="M54.5,52.5 L57.5,41.7 L51.5,41.7 L54.5,52.5 Z" stroke="#8F8981" fill="#8F8981" stroke-linecap="square"></path>
            <g id="ref-3">
                <rect id="Rectangle-2" fill="#F44D27" x="0" y="0" width="111" height="33"></rect>
                <text id="master" font-family="Menlo-Regular, Menlo" font-size="12" font-weight="normal" fill="#FFFFFF">
                    <tspan x="4.60505996" y="21">teamone/master</tspan>
                </text>
            </g>
        </g>
        <rect id="Rectangle-11" stroke="#8F8981" stroke-linecap="square" x="29.7349823" y="219" width="626.450972" height="262"></rect>
        <text id="My-Computer" font-family="Menlo-Regular, Menlo" font-size="12" font-weight="normal" fill="#000000">
            <tspan x="296.264648" y="236">My Computer</tspan>
        </text>
        <text id="git-push-teamone-mas" font-family="Menlo-Regular, Menlo" font-size="12" font-weight="normal" fill="#413932">
            <tspan x="263.416992" y="197">git push teamone master</tspan>
        </text>
        <text id="fail!" font-family="Menlo-Regular, Menlo" font-size="12" font-weight="normal" fill="#FF1B00">
            <tspan x="489.438477" y="199">fail!</tspan>
        </text>
        <path d="M475,217 L475,171" id="Line" stroke="#8F8981" stroke-width="8" fill="#8F8981"></path>
        <path id="Line-decoration-1" d="M475,171 L472,181.8 L478,181.8 L475,171 Z" stroke="#8F8981" stroke-width="8" fill="#8F8981"></path>
        <g id="Group" transform="translate(24.000000, 51.000000)">
            <path d="M47.5,69.5 L0.5,69.5" id="Line-8" stroke="#8F8981" fill="#8F8981" stroke-dasharray="2"></path>
            <path id="Line-8-decoration-1" d="M0.5,69.5 L11.3,72.5 L11.3,66.5 L0.5,69.5 Z" stroke="#8F8981" fill="#8F8981" stroke-dasharray="2"></path>
            <g id="brown" transform="translate(28.000000, 53.000000)">
                <rect id="Rectangle-1" fill="#EFEFE7" fill-rule="evenodd" x="0" y="0" width="89" height="33" rx="16.5"></rect>
                <text id="C6" stroke-width="1" font-family="Menlo-Regular, Menlo" font-size="12" font-weight="normal" fill="#000000">
                    <tspan x="27.4384766" y="21">f4265</tspan>
                </text>
            </g>
            <path d="M162.5,69.5 L115.5,69.5" id="Line-9" stroke="#8F8981" fill="#8F8981" stroke-linecap="square"></path>
            <path id="Line-9-decoration-1" d="M115.5,69.5 L126.3,72.5 L126.3,66.5 L115.5,69.5 Z" stroke="#8F8981" fill="#8F8981" stroke-linecap="square"></path>
            <g id="brown" transform="translate(143.000000, 53.000000)">
                <rect id="Rectangle-1" fill="#EFEFE7" fill-rule="evenodd" x="0" y="0" width="89" height="33" rx="16.5"></rect>
                <text id="C6" stroke-width="1" font-family="Menlo-Regular, Menlo" font-size="12" font-weight="normal" fill="#000000">
                    <tspan x="27.4384766" y="21">31b8e</tspan>
                </text>
            </g>
            <path d="M278.5,69.5 L231.5,69.5" id="Line-10" stroke="#8F8981" fill="#8F8981" stroke-linecap="square"></path>
            <path id="Line-10-decoration-1" d="M231.5,69.5 L242.3,72.5 L242.3,66.5 L231.5,69.5 Z" stroke="#8F8981" fill="#8F8981" stroke-linecap="square"></path>
            <g id="brown" transform="translate(259.000000, 53.000000)">
                <rect id="Rectangle-1" fill="#EFEFE7" fill-rule="evenodd" x="0" y="0" width="89" height="33" rx="16.5"></rect>
                <text id="C6" stroke-width="1" font-family="Menlo-Regular, Menlo" font-size="12" font-weight="normal" fill="#000000">
                    <tspan x="27.4384766" y="21">190a3</tspan>
                </text>
            </g>
            <g id="Line-2-+-ref" transform="translate(261.000000, 0.000000)">
                <path d="M42.5,20.5 L42.5,52.5" id="Line-2" stroke="#8F8981" fill="#8F8981" stroke-linecap="square"></path>
                <path id="Line-2-decoration-1" d="M42.5,52.5 L45.5,41.7 L39.5,41.7 L42.5,52.5 Z" stroke="#8F8981" fill="#8F8981" stroke-linecap="square"></path>
                <g id="ref">
                    <rect id="Rectangle-2" fill="#F44D27" fill-rule="evenodd" x="0" y="0" width="107" height="33"></rect>
                    <text id="master" stroke-width="1" font-family="Menlo-Regular, Menlo" font-size="11.1428571" font-weight="normal" fill="#FFFFFF">
                        <tspan x="33.0632559" y="20">master</tspan>
                    </text>
                </g>
            </g>
        </g>
        <rect id="Rectangle-10" stroke="#8F8981" stroke-linecap="square" x="10" y="12" width="379.265018" height="144.96875"></rect>
        <text id="git.ourcompany.com" font-family="Menlo-Regular, Menlo" font-size="12" font-weight="normal" fill="#000000">
            <tspan x="133.978516" y="28">git.ourcompany.com</tspan>
        </text>
        <text id="origin" font-family="Menlo-Bold, Menlo" font-size="12" font-weight="bold" fill="#413932">
            <tspan x="177" y="170">origin</tspan>
        </text>
        <path d="M473.5,120.5 L426.5,120.5" id="Line-15" stroke="#8F8981" fill="#8F8981" stroke-dasharray="2"></path>
        <path id="Line-15-decoration-1" d="M426.5,120.5 L437.3,123.5 L437.3,117.5 L426.5,120.5 Z" stroke="#8F8981" fill="#8F8981" stroke-dasharray="2"></path>
        <g id="brown" transform="translate(454.000000, 104.000000)">
            <rect id="Rectangle-1" fill="#EFEFE7" fill-rule="evenodd" x="0" y="0" width="89" height="33" rx="16.5"></rect>
            <text id="C6" stroke-width="1" font-family="Menlo-Regular, Menlo" font-size="12" font-weight="normal" fill="#000000">
                <tspan x="27.4384766" y="21">f4265</tspan>
            </text>
        </g>
        <path d="M588.5,120.5 L541.5,120.5" id="Line-16" stroke="#8F8981" fill="#8F8981" stroke-linecap="square"></path>
        <path id="Line-16-decoration-1" d="M541.5,120.5 L552.3,123.5 L552.3,117.5 L541.5,120.5 Z" stroke="#8F8981" fill="#8F8981" stroke-linecap="square"></path>
        <g id="brown" transform="translate(569.000000, 104.000000)">
            <rect id="Rectangle-1" fill="#EFEFE7" fill-rule="evenodd" x="0" y="0" width="89" height="33" rx="16.5"></rect>
            <text id="C6" stroke-width="1" font-family="Menlo-Regular, Menlo" font-size="12" font-weight="normal" fill="#000000">
                <tspan x="27.4384766" y="21">31b8e</tspan>
            </text>
        </g>
        <g id="Line-2-+-ref-2" transform="translate(571.000000, 51.000000)">
            <path d="M42.5,20.5 L42.5,52.5" id="Line-2" stroke="#8F8981" fill="#8F8981" stroke-linecap="square"></path>
            <path id="Line-2-decoration-1" d="M42.5,52.5 L45.5,41.7 L39.5,41.7 L42.5,52.5 Z" stroke="#8F8981" fill="#8F8981" stroke-linecap="square"></path>
            <g id="ref">
                <rect id="Rectangle-2" fill="#F44D27" fill-rule="evenodd" x="0" y="0" width="107" height="33"></rect>
                <text id="master" stroke-width="1" font-family="Menlo-Regular, Menlo" font-size="11.1428571" font-weight="normal" fill="#FFFFFF">
                    <tspan x="33.0632559" y="20">master</tspan>
                </text>
            </g>
        </g>
        <rect id="Rectangle-12" stroke="#8F8981" stroke-linecap="square" x="412" y="12" width="264" height="144.96875"></rect>
        <text id="git.team1.ourcompany" font-family="Menlo-Regular, Menlo" font-size="12" font-weight="normal" fill="#000000">
            <tspan x="457.304688" y="28">git.team1.ourcompany.com</tspan>
        </text>
        <text id="teamone" font-family="Menlo-Bold, Menlo" font-size="12" font-weight="bold" fill="#413932">
            <tspan x="518" y="170">teamone</tspan>
        </text>
        <path d="M427.5,196.5 L429,198" id="Line" stroke-linecap="square"></path>
        <path d="M457.5,186.5 L492.5,203.5" id="Line" stroke="#FF0000" stroke-width="3" stroke-linecap="square"></path>
        <path d="M489.5,186.5 L459.5,203.5" id="Line" stroke="#FF0000" stroke-width="3" stroke-linecap="square"></path>
    </g>
</svg>