<?xml version="1.0" encoding="UTF-8" standalone="no"?>
<!DOCTYPE svg PUBLIC "-//W3C//DTD SVG 1.1//EN" "http://www.w3.org/Graphics/SVG/1.1/DTD/svg11.dtd">
<svg width="100%" height="100%" viewBox="0 0 45 45" version="1.1" xmlns="http://www.w3.org/2000/svg" xmlns:xlink="http://www.w3.org/1999/xlink" xml:space="preserve" style="fill-rule:evenodd;clip-rule:evenodd;stroke-linejoin:round;stroke-miterlimit:1.41421;">
    <g transform="matrix(1,0,0,1,0,-0.15)">
        <g transform="matrix(1,0,0,1,2.05,0.15)">
            <path d="M1.5,11C1.2,11.2 1,11.6 1,11.9L1,33.1C1,33.4 1.2,33.9 1.5,34L19.9,44.6C20.2,44.8 20.7,44.8 21,44.6L39.4,34C39.7,33.8 39.9,33.4 39.9,33.1L39.9,12C39.9,11.7 39.7,11.2 39.4,11.1L21,0.4C20.7,0.2 20.2,0.2 19.9,0.4L1.5,11Z" style="fill:rgb(211,211,214);fill-rule:nonzero;stroke:black;stroke-width:0.15px;"/>
        </g>
        <path d="M24.2,24.1L17.1,24.1C16.3,24.1 15.6,23.4 15.6,22.6C15.6,21.8 16.3,21.1 17.1,21.1L24.2,21.1C25,21.1 25.7,21.8 25.7,22.6C25.7,23.4 25,24.1 24.2,24.1Z" style="fill:rgb(0,174,239);fill-rule:nonzero;"/>
        <path d="M30.9,22.9C30.9,22.1 31.5,17.8 24.3,13.8C23.8,14.4 23.1,15.2 22.1,16C22.2,16.1 23.4,16.8 23.5,16.9C28,19.2 27.9,22.4 27.9,22.7L27.9,23C27.9,23.3 27.7,25.7 23.5,28.1C18.1,31.3 17.1,34 17,34.5L20,35.3L20,35.4C20,35.4 20.2,34.8 21.2,33.8L26.1,36.6C26.3,36.7 26.6,36.8 26.9,36.8C27.4,36.8 28,36.5 28.2,36C28.6,35.3 28.4,34.3 27.6,33.9L23.7,31.7C24.1,31.4 24.5,31.1 25,30.9C30.6,27.5 30.9,23.8 30.9,22.9Z" style="fill:rgb(0,174,239);fill-rule:nonzero;"/>
        <path d="M10.4,22.3C10.4,23.1 9.8,27.4 17,31.4C17.5,30.8 18.2,30 19.2,29.2C19.1,29.1 17.9,28.4 17.8,28.3C13.3,26 13.4,22.8 13.4,22.5L13.4,22.4L13.4,22.2C13.4,21.9 13.6,19.5 17.8,17.1C23.2,13.9 24.2,11.2 24.3,10.7L21.3,9.9L21.3,9.8C21.3,9.8 21.1,10.4 20.1,11.4L15.2,8.6C15,8.5 14.7,8.4 14.4,8.4C13.9,8.4 13.3,8.7 13.1,9.2C12.7,9.9 12.9,10.9 13.7,11.3L17.6,13.5C17.2,13.8 16.8,14.1 16.3,14.3C10.6,17.7 10.3,21.4 10.4,22.3Z" style="fill:rgb(0,174,239);fill-rule:nonzero;"/>
    </g>
</svg>
