<?xml version="1.0" encoding="UTF-8" standalone="no"?>
<!DOCTYPE svg PUBLIC "-//W3C//DTD SVG 1.1//EN" "http://www.w3.org/Graphics/SVG/1.1/DTD/svg11.dtd">
<svg width="100%" height="100%" viewBox="0 0 100 100" version="1.1" xmlns="http://www.w3.org/2000/svg" xmlns:xlink="http://www.w3.org/1999/xlink" xml:space="preserve" style="fill-rule:evenodd;clip-rule:evenodd;stroke-linejoin:round;stroke-miterlimit:1.41421;">
    <g transform="matrix(1.2052,0,0,1.2052,-10.2598,-5.61639)">
        <g id="hg">
            <path d="M85.685,67.399C100.47,42.815 82.562,2.944 49.818,6.995C20.233,10.652 19.757,41.792 45.83,49.189C68.393,55.597 50.491,69.909 51.014,79.439C51.54,88.968 70.63,92.425 85.685,67.399" style="fill:rgb(27,27,27);fill-rule:nonzero;"/>
            <circle cx="31.579" cy="70.617" r="12.838" style="fill:rgb(27,27,27);"/>
            <circle cx="16.913" cy="43.476" r="8.4" style="fill:rgb(27,27,27);"/>
        </g>
        <g id="hg1" transform="matrix(1,0,0,1,0.559,-0.997)">
            <path d="M85.685,67.399C100.47,42.815 82.562,2.944 49.818,6.995C20.233,10.652 19.757,41.792 45.83,49.189C68.393,55.597 50.491,69.909 51.014,79.439C51.54,88.968 70.63,92.425 85.685,67.399" style="fill:rgb(191,191,191);fill-rule:nonzero;"/>
            <circle cx="31.579" cy="70.617" r="12.838" style="fill:rgb(191,191,191);"/>
            <circle cx="16.913" cy="43.476" r="8.4" style="fill:rgb(191,191,191);"/>
        </g>
        <path d="M55.367,82.205C54.471,80.751 55.841,79.137 57.25,79.26C59.492,79.456 64.373,79.233 68.225,77.05C77.847,71.595 92.656,45.348 85.208,28.793C81.874,21.383 80.25,19.261 76.816,15.636C76.116,14.897 76.518,14.937 76.992,15.187C78.849,16.161 82.112,19.936 85.459,26.08C91.114,36.46 90.821,48.8 88.718,56.541C87.253,61.926 82.206,74.109 74.816,79.376C67.41,84.655 58.743,87.683 55.367,82.205M48.662,48.142C43.621,46.646 37.122,44.562 33.363,39.645C30.591,36.019 29.185,32.063 28.825,29.819C28.698,29.018 28.589,28.351 28.82,28.166C28.926,28.081 30.889,32.517 33.823,36.235C36.756,39.954 40.856,42.129 44.272,42.919C47.31,43.621 53.603,45.165 55.732,46.978C57.921,48.843 58.104,52.871 57.367,53.326C56.624,53.783 55.118,50.058 48.662,48.142M24.497,78.973C34.48,88.223 49.506,75.517 42.89,64.293C42.147,63.033 41.182,62.074 41.499,63.039C43.614,69.493 41.66,74.598 38.014,77.228C34.439,79.808 29.526,80.239 25.592,78.2C24.437,77.601 23.958,78.474 24.497,78.973M12.851,48.865C12.903,49.459 13.715,50.221 14.992,50.571C16.089,50.872 18.917,51.64 22.55,49.347C26.182,47.055 26.601,40.922 24.95,39.118C24.439,38.204 23.774,37.539 24.303,38.997C25.639,42.679 23.043,46.123 20.804,47.718C18.567,49.313 15.728,48.558 14.569,48.205C13.411,47.851 12.799,48.252 12.851,48.865" style="fill-rule:nonzero;"/>
        <path d="M59.057,82.915C58.96,84.069 60.285,84.295 62.069,84.028C64.356,83.685 66.29,83.428 68.922,82.109C72.489,80.321 76.099,77.764 78.742,74.314C86.631,64.022 89.424,51.845 88.994,50.094C88.85,51.54 86.946,59.134 82.591,65.979C76.997,74.773 72.941,79.456 63.587,81.727C60.983,82.359 59.185,81.396 59.057,82.915M38.31,42.895C39.375,43.799 41.558,45.003 45.853,46.412C51.041,48.113 53.567,49.588 54.625,50.294C55.746,51.045 56.456,52.72 56.526,51.232C56.6,49.743 55.682,48.463 53.634,47.783C52.248,47.323 49.917,46.228 47.682,45.787C46.246,45.503 43.91,44.941 41.907,44.327C40.809,43.99 39.69,43.399 38.31,42.895M32.33,80.873C33.601,80.606 40.994,78.691 42.73,72.611C43.271,70.715 43.368,71.096 43.215,72.123C42.435,77.366 37.48,81.233 33.263,81.377C32.407,81.465 31.284,81.092 32.33,80.873M17.539,49.689C17.872,49.389 19.558,49.512 21.08,48.693C22.601,47.875 24.408,46.082 24.731,43.533C24.921,42.036 24.978,42.412 25.054,43.227C24.818,47.464 20.921,49.805 18.693,50.114C18.091,50.197 17.033,50.146 17.539,49.689" style="fill:white;fill-rule:nonzero;"/>
        <path d="M84.196,50.431C90.491,32.286 77.318,4.883 50.667,8.18C26.587,11.157 26.198,36.502 47.42,42.524C71.459,46.163 56.984,64.297 54.931,73.442C53.09,81.639 74.357,82.988 84.196,50.431M23.98,76.365C25.487,76.391 26.399,76.603 27.926,77.674C30.944,78.928 36.492,78.134 39.053,74.761C41.615,71.389 41.699,66.742 40.723,63.934C38.336,57.063 28.192,57.184 23.661,62.889C18.759,69.26 22.472,76.34 23.98,76.365M10.515,44.521C10.815,45.468 11.583,46.849 13.205,47.079C15.37,47.386 15.813,48.365 18.37,47.857C20.927,47.349 22.865,45.254 23.64,42.936C24.528,39.729 23.199,38.074 21.198,36.595C19.197,35.117 14.796,35.276 12.169,37.67C10.302,39.371 9.783,42.217 10.515,44.521" style="fill:rgb(153,153,153);fill-rule:nonzero;"/>
        <path d="M67.724,64.604C61.212,63.799 51.841,78.502 60.677,76.78C69.512,75.059 51.841,78.502 60.677,76.78C64.924,76.15 68.443,74.65 71.592,71.055C75.699,66.368 81.834,56.245 83.609,49.704C85.103,44.189 84.352,35.644 82.811,43.672C81.231,51.912 74.237,65.41 67.724,64.604M33.77,76.855C35.447,76.416 40.582,74.327 39.617,66.861C39.129,63.08 37.067,71.554 33.247,72.822C27.461,74.742 28.111,78.337 33.77,76.855M19.018,46.642C20.983,46.128 23.581,43.451 22.291,41.407C20.7,38.889 16.266,41.044 16.116,43.848C15.966,46.653 16.936,47.187 19.018,46.642" style="fill:rgb(243,243,243);fill-rule:nonzero;"/>
    </g>
</svg>
